<svg xmlns="http://www.w3.org/2000/svg" xmlns:xlink="http://www.w3.org/1999/xlink" width="1080" zoomAndPan="magnify" viewBox="0 0 810 809.999993" height="1080" preserveAspectRatio="xMidYMid meet" version="1.0"><defs><g/></defs><g fill="#000000" fill-opacity="1"><g transform="translate(397.808111, 723.537922)"><g><path d="M -25.484375 58.59375 L -22.234375 32.296875 L -56.84375 28.015625 L -56.09375 21.890625 L -21.484375 26.171875 L -17.96875 -2.21875 L -10.90625 -1.34375 L -19.171875 65.578125 L -65.0625 59.90625 L -64.3125 53.796875 Z M -25.484375 58.59375 "/></g></g></g><g fill="#000000" fill-opacity="1"><g transform="translate(342.008625, 717.271651)"><g><path d="M -67.859375 31.78125 L -52.65625 -16.5625 L -46.421875 -14.59375 L -49.203125 -5.765625 C -46.554688 -8.171875 -43.472656 -9.710938 -39.953125 -10.390625 C -36.441406 -11.078125 -32.753906 -10.8125 -28.890625 -9.59375 C -22.585938 -7.613281 -18.164062 -4.289062 -15.625 0.375 C -13.082031 5.050781 -12.882812 10.789062 -15.03125 17.59375 L -23.84375 45.625 L -30.359375 43.578125 L -21.75 16.1875 C -20.144531 11.101562 -20.1875 6.847656 -21.875 3.421875 C -23.5625 -0.00390625 -26.734375 -2.453125 -31.390625 -3.921875 C -36.472656 -5.515625 -40.96875 -5.222656 -44.875 -3.046875 C -48.789062 -0.867188 -51.617188 2.972656 -53.359375 8.484375 L -61.328125 33.84375 Z M -67.859375 31.78125 "/></g></g></g><g fill="#000000" fill-opacity="1"><g transform="translate(284.013287, 697.948962)"><g><path d="M -38.8125 60.796875 L -45.015625 57.90625 L -14.84375 -6.90625 L -8.640625 -4.015625 Z M -38.8125 60.796875 "/></g></g></g><g fill="#000000" fill-opacity="1"><g transform="translate(262.375194, 687.963823)"><g><path d="M -43.25 57.71875 L -49.21875 54.375 L -14.28125 -8 L -8.3125 -4.65625 Z M -43.25 57.71875 "/></g></g></g><g fill="#000000" fill-opacity="1"><g transform="translate(241.499737, 676.354345)"><g/></g></g><g fill="#000000" fill-opacity="1"><g transform="translate(222.521759, 665.285568)"><g><path d="M -22.125 -19.640625 C -18.3125 -16.390625 -15.175781 -12.660156 -12.71875 -8.453125 C -10.269531 -4.253906 -8.953125 -0.335938 -8.765625 3.296875 L -14.46875 5.65625 C -14.726562 2.21875 -15.90625 -1.390625 -18 -5.171875 C -20.101562 -8.953125 -22.789062 -12.238281 -26.0625 -15.03125 C -30.65625 -18.945312 -34.816406 -21.039062 -38.546875 -21.3125 C -42.285156 -21.582031 -45.300781 -20.375 -47.59375 -17.6875 C -49.351562 -15.632812 -50.128906 -13.46875 -49.921875 -11.1875 C -49.710938 -8.90625 -48.984375 -6.660156 -47.734375 -4.453125 C -46.492188 -2.253906 -44.585938 0.613281 -42.015625 4.15625 C -39.003906 8.425781 -36.738281 11.992188 -35.21875 14.859375 C -33.695312 17.722656 -32.90625 20.78125 -32.84375 24.03125 C -32.789062 27.28125 -34.117188 30.492188 -36.828125 33.671875 C -39.035156 36.253906 -41.734375 38.023438 -44.921875 38.984375 C -48.109375 39.953125 -51.660156 39.859375 -55.578125 38.703125 C -59.492188 37.554688 -63.550781 35.1875 -67.75 31.59375 C -70.675781 29.09375 -73.203125 26.238281 -75.328125 23.03125 C -77.453125 19.832031 -78.9375 16.65625 -79.78125 13.5 L -74.25 10.734375 C -73.3125 13.984375 -71.921875 17.003906 -70.078125 19.796875 C -68.242188 22.585938 -66.15625 24.984375 -63.8125 26.984375 C -59.320312 30.828125 -55.195312 32.847656 -51.4375 33.046875 C -47.6875 33.242188 -44.648438 31.972656 -42.328125 29.234375 C -40.566406 27.179688 -39.773438 25.003906 -39.953125 22.703125 C -40.140625 20.398438 -40.890625 18.113281 -42.203125 15.84375 C -43.523438 13.582031 -45.441406 10.703125 -47.953125 7.203125 C -50.921875 3.066406 -53.175781 -0.4375 -54.71875 -3.3125 C -56.269531 -6.195312 -57.066406 -9.242188 -57.109375 -12.453125 C -57.160156 -15.660156 -55.859375 -18.828125 -53.203125 -21.953125 C -50.984375 -24.546875 -48.269531 -26.3125 -45.0625 -27.25 C -41.863281 -28.1875 -38.289062 -28.046875 -34.34375 -26.828125 C -30.394531 -25.617188 -26.320312 -23.222656 -22.125 -19.640625 Z M -22.125 -19.640625 "/></g></g></g><g fill="#000000" fill-opacity="1"><g transform="translate(180.746867, 629.05906)"><g><path d="M -26.25 -25.140625 C -24.539062 -24.941406 -22.828125 -24.332031 -21.109375 -23.3125 C -19.398438 -22.289062 -17.867188 -21.007812 -16.515625 -19.46875 C -13.378906 -15.90625 -11.921875 -12.3125 -12.140625 -8.6875 C -12.367188 -5.0625 -14.242188 -1.691406 -17.765625 1.421875 L -40.75 21.65625 L -34.765625 28.4375 L -39.09375 32.265625 L -45.078125 25.484375 L -53.390625 32.8125 L -57.921875 27.671875 L -49.609375 20.34375 L -59.796875 8.78125 L -55.46875 4.953125 L -45.28125 16.515625 L -22.578125 -3.484375 C -20.304688 -5.472656 -19.078125 -7.550781 -18.890625 -9.71875 C -18.710938 -11.894531 -19.5625 -14.046875 -21.4375 -16.171875 C -22.375 -17.234375 -23.445312 -18.109375 -24.65625 -18.796875 C -25.863281 -19.484375 -27.097656 -19.914062 -28.359375 -20.09375 Z M -26.25 -25.140625 "/></g></g></g><g fill="#000000" fill-opacity="1"><g transform="translate(156.701006, 603.104885)"><g><path d="M -57.640625 5.390625 C -61.285156 -0.128906 -62.695312 -5.273438 -61.875 -10.046875 C -61.0625 -14.816406 -57.945312 -18.988281 -52.53125 -22.5625 L -26.328125 -39.875 L -22.71875 -34.40625 L -29.3125 -30.046875 C -26.269531 -30.222656 -23.304688 -29.46875 -20.421875 -27.78125 C -17.546875 -26.101562 -14.972656 -23.550781 -12.703125 -20.125 C -9.585938 -15.40625 -8.234375 -10.910156 -8.640625 -6.640625 C -9.054688 -2.367188 -11.117188 0.988281 -14.828125 3.4375 C -18.410156 5.8125 -22.15625 6.421875 -26.0625 5.265625 C -29.976562 4.117188 -33.816406 0.703125 -37.578125 -4.984375 L -46.453125 -18.40625 L -49.03125 -16.703125 C -52.675781 -14.296875 -54.773438 -11.441406 -55.328125 -8.140625 C -55.878906 -4.847656 -54.863281 -1.242188 -52.28125 2.671875 C -50.507812 5.347656 -48.363281 7.625 -45.84375 9.5 C -43.332031 11.382812 -40.71875 12.691406 -38 13.421875 L -40.546875 18.828125 C -43.796875 17.878906 -46.90625 16.234375 -49.875 13.890625 C -52.851562 11.546875 -55.441406 8.710938 -57.640625 5.390625 Z M -17.796875 -18.046875 C -19.921875 -21.253906 -22.484375 -23.523438 -25.484375 -24.859375 C -28.484375 -26.191406 -31.75 -26.5 -35.28125 -25.78125 L -42.203125 -21.21875 L -33.421875 -7.953125 C -28.648438 -0.710938 -23.742188 1.242188 -18.703125 -2.078125 C -16.234375 -3.710938 -14.90625 -5.9375 -14.71875 -8.75 C -14.53125 -11.5625 -15.554688 -14.660156 -17.796875 -18.046875 Z M -17.796875 -18.046875 "/></g></g></g><g fill="#000000" fill-opacity="1"><g transform="translate(127.565849, 559.454346)"><g><path d="M -12.109375 -28.046875 C -10.046875 -23.484375 -9.195312 -18.953125 -9.5625 -14.453125 C -9.9375 -9.953125 -11.460938 -5.863281 -14.140625 -2.1875 C -16.828125 1.476562 -20.425781 4.328125 -24.9375 6.359375 C -29.4375 8.390625 -33.9375 9.1875 -38.4375 8.75 C -42.9375 8.3125 -46.988281 6.738281 -50.59375 4.03125 C -54.207031 1.320312 -57.046875 -2.3125 -59.109375 -6.875 C -60.898438 -10.851562 -61.722656 -14.757812 -61.578125 -18.59375 C -61.429688 -22.425781 -60.28125 -25.921875 -58.125 -29.078125 L -52.859375 -25.84375 C -54.460938 -23.289062 -55.304688 -20.582031 -55.390625 -17.71875 C -55.472656 -14.863281 -54.894531 -12.0625 -53.65625 -9.3125 C -52.144531 -5.96875 -50.039062 -3.300781 -47.34375 -1.3125 C -44.65625 0.664062 -41.597656 1.78125 -38.171875 2.03125 C -34.753906 2.28125 -31.289062 1.613281 -27.78125 0.03125 C -24.207031 -1.570312 -21.394531 -3.734375 -19.34375 -6.453125 C -17.289062 -9.171875 -16.113281 -12.195312 -15.8125 -15.53125 C -15.519531 -18.863281 -16.128906 -22.203125 -17.640625 -25.546875 C -18.878906 -28.296875 -20.582031 -30.59375 -22.75 -32.4375 C -24.925781 -34.28125 -27.492188 -35.445312 -30.453125 -35.9375 L -29.390625 -42.015625 C -25.585938 -41.546875 -22.195312 -40.082031 -19.21875 -37.625 C -16.25 -35.164062 -13.878906 -31.972656 -12.109375 -28.046875 Z M -12.109375 -28.046875 "/></g></g></g><g fill="#000000" fill-opacity="1"><g transform="translate(106.630694, 514.214825)"><g><path d="M -31.890625 -20.78125 L -18.203125 -12.078125 L -4.234375 -15.8125 L -2.46875 -9.203125 L -71.53125 9.265625 L -73.296875 2.65625 L -26.484375 -9.859375 L -61 -31.953125 L -63.1875 -40.140625 L -37.59375 -24.546875 L -14.765625 -55.1875 L -12.59375 -47.09375 Z M -31.890625 -20.78125 "/></g></g></g><g fill="#000000" fill-opacity="1"><g transform="translate(93.279045, 461.325224)"><g/></g></g><g fill="#000000" fill-opacity="1"><g transform="translate(87.948957, 440.605126)"><g><path d="M -67.328125 -11.65625 L -67.046875 -39.109375 C -66.972656 -46.242188 -65.476562 -52.523438 -62.5625 -57.953125 C -59.65625 -63.390625 -55.632812 -67.585938 -50.5 -70.546875 C -45.363281 -73.515625 -39.519531 -74.96875 -32.96875 -74.90625 C -26.414062 -74.832031 -20.601562 -73.265625 -15.53125 -70.203125 C -10.457031 -67.140625 -6.515625 -62.863281 -3.703125 -57.375 C -0.898438 -51.882812 0.460938 -45.570312 0.390625 -38.4375 L 0.109375 -10.984375 Z M -5.796875 -38.125 C -5.734375 -44.03125 -6.847656 -49.207031 -9.140625 -53.65625 C -11.441406 -58.113281 -14.648438 -61.582031 -18.765625 -64.0625 C -22.890625 -66.539062 -27.648438 -67.8125 -33.046875 -67.875 C -38.441406 -67.925781 -43.21875 -66.753906 -47.375 -64.359375 C -51.539062 -61.960938 -54.820312 -58.554688 -57.21875 -54.140625 C -59.613281 -49.734375 -60.84375 -44.578125 -60.90625 -38.671875 L -61.09375 -18.71875 L -5.984375 -18.171875 Z M -5.796875 -38.125 "/></g></g></g><g fill="#000000" fill-opacity="1"><g transform="translate(89.219429, 366.460473)"><g><path d="M -11.578125 -57.296875 L -20.375 -15.828125 C -15.144531 -15.109375 -10.5625 -16.203125 -6.625 -19.109375 C -2.695312 -22.023438 -0.148438 -26.21875 1.015625 -31.6875 C 1.660156 -34.769531 1.707031 -37.71875 1.15625 -40.53125 C 0.601562 -43.34375 -0.535156 -45.914062 -2.265625 -48.25 L 2.875 -51.109375 C 5.039062 -48.335938 6.460938 -45.15625 7.140625 -41.5625 C 7.828125 -37.976562 7.75 -34.207031 6.90625 -30.25 C 5.820312 -25.164062 3.78125 -20.882812 0.78125 -17.40625 C -2.21875 -13.9375 -5.863281 -11.507812 -10.15625 -10.125 C -14.457031 -8.75 -19.03125 -8.578125 -23.875 -9.609375 C -28.695312 -10.628906 -32.800781 -12.597656 -36.1875 -15.515625 C -39.582031 -18.429688 -41.957031 -21.953125 -43.3125 -26.078125 C -44.675781 -30.203125 -44.867188 -34.554688 -43.890625 -39.140625 C -42.921875 -43.734375 -40.976562 -47.625 -38.0625 -50.8125 C -35.15625 -54.007812 -31.582031 -56.238281 -27.34375 -57.5 C -23.101562 -58.769531 -18.535156 -58.890625 -13.640625 -57.859375 Z M -38.140625 -37.921875 C -39.160156 -33.160156 -38.488281 -28.835938 -36.125 -24.953125 C -33.757812 -21.066406 -30.175781 -18.378906 -25.375 -16.890625 L -17.921875 -52.046875 C -22.910156 -52.648438 -27.269531 -51.65625 -31 -49.0625 C -34.738281 -46.476562 -37.117188 -42.765625 -38.140625 -37.921875 Z M -38.140625 -37.921875 "/></g></g></g><g fill="#000000" fill-opacity="1"><g transform="translate(100.272345, 313.761757)"><g><path d="M -28.484375 -66.875 L 10.65625 -27.59375 L 8.125 -21.03125 L -47.234375 -18.34375 L -44.671875 -24.984375 L 2.421875 -27.140625 L -30.921875 -60.578125 Z M -28.484375 -66.875 "/></g></g></g><g fill="#000000" fill-opacity="1"><g transform="translate(116.986582, 268.87748)"><g><path d="M 6.96875 -58.046875 L -14.390625 -21.4375 C -9.640625 -19.113281 -4.941406 -18.710938 -0.296875 -20.234375 C 4.347656 -21.765625 8.078125 -24.945312 10.890625 -29.78125 C 12.484375 -32.5 13.457031 -35.28125 13.8125 -38.125 C 14.164062 -40.96875 13.890625 -43.769531 12.984375 -46.53125 L 18.75 -47.609375 C 19.945312 -44.316406 20.304688 -40.859375 19.828125 -37.234375 C 19.347656 -33.609375 18.085938 -30.046875 16.046875 -26.546875 C 13.429688 -22.054688 10.148438 -18.632812 6.203125 -16.28125 C 2.265625 -13.9375 -1.957031 -12.78125 -6.46875 -12.8125 C -10.988281 -12.84375 -15.382812 -14.101562 -19.65625 -16.59375 C -23.925781 -19.082031 -27.210938 -22.242188 -29.515625 -26.078125 C -31.816406 -29.910156 -32.960938 -34 -32.953125 -38.34375 C -32.953125 -42.6875 -31.769531 -46.882812 -29.40625 -50.9375 C -27.039062 -54.976562 -23.976562 -58.0625 -20.21875 -60.1875 C -16.457031 -62.3125 -12.363281 -63.3125 -7.9375 -63.1875 C -3.519531 -63.0625 0.851562 -61.738281 5.1875 -59.21875 Z M -24.328125 -47.984375 C -26.785156 -43.765625 -27.503906 -39.441406 -26.484375 -35.015625 C -25.460938 -30.597656 -22.898438 -26.925781 -18.796875 -24 L -0.6875 -55.046875 C -5.25 -57.191406 -9.707031 -57.617188 -14.0625 -56.328125 C -18.414062 -55.035156 -21.835938 -52.253906 -24.328125 -47.984375 Z M -24.328125 -47.984375 "/></g></g></g><g fill="#000000" fill-opacity="1"><g transform="translate(145.252618, 221.948752)"><g><path d="M -51.171875 -50.8125 L -47.03125 -56.265625 L 9.90625 -13.046875 L 5.765625 -7.59375 Z M -51.171875 -50.8125 "/></g></g></g><g fill="#000000" fill-opacity="1"><g transform="translate(157.855679, 203.189179)"><g><path d="M 21.484375 -21.28125 C 18.078125 -17.800781 14.210938 -15.429688 9.890625 -14.171875 C 5.566406 -12.921875 1.222656 -12.863281 -3.140625 -14 C -7.515625 -15.132812 -11.472656 -17.429688 -15.015625 -20.890625 C -18.546875 -24.335938 -20.925781 -28.234375 -22.15625 -32.578125 C -23.394531 -36.921875 -23.425781 -41.257812 -22.25 -45.59375 C -21.070312 -49.925781 -18.78125 -53.832031 -15.375 -57.3125 C -11.957031 -60.8125 -8.097656 -63.195312 -3.796875 -64.46875 C 0.503906 -65.75 4.828125 -65.804688 9.171875 -64.640625 C 13.523438 -63.484375 17.46875 -61.179688 21 -57.734375 C 24.539062 -54.273438 26.9375 -50.382812 28.1875 -46.0625 C 29.445312 -41.75 29.5 -37.414062 28.34375 -33.0625 C 27.1875 -28.707031 24.898438 -24.78125 21.484375 -21.28125 Z M 17.140625 -25.53125 C 19.648438 -28.101562 21.316406 -30.984375 22.140625 -34.171875 C 22.972656 -37.367188 22.867188 -40.59375 21.828125 -43.84375 C 20.796875 -47.101562 18.898438 -50.082031 16.140625 -52.78125 C 13.390625 -55.46875 10.375 -57.289062 7.09375 -58.25 C 3.8125 -59.21875 0.585938 -59.25 -2.578125 -58.34375 C -5.753906 -57.445312 -8.597656 -55.710938 -11.109375 -53.140625 C -13.617188 -50.578125 -15.285156 -47.695312 -16.109375 -44.5 C -16.941406 -41.3125 -16.847656 -38.078125 -15.828125 -34.796875 C -14.804688 -31.523438 -12.921875 -28.546875 -10.171875 -25.859375 C -7.410156 -23.160156 -4.378906 -21.335938 -1.078125 -20.390625 C 2.210938 -19.453125 5.441406 -19.429688 8.609375 -20.328125 C 11.785156 -21.234375 14.628906 -22.96875 17.140625 -25.53125 Z M 17.140625 -25.53125 "/></g></g></g><g fill="#000000" fill-opacity="1"><g transform="translate(196.199878, 163.017317)"><g><path d="M -0.359375 -62.265625 C 3.523438 -65.015625 7.660156 -66.617188 12.046875 -67.078125 C 16.429688 -67.546875 20.644531 -66.8125 24.6875 -64.875 C 28.726562 -62.9375 32.195312 -59.925781 35.09375 -55.84375 C 38.019531 -51.695312 39.722656 -47.390625 40.203125 -42.921875 C 40.691406 -38.460938 39.992188 -34.253906 38.109375 -30.296875 C 36.234375 -26.335938 33.328125 -22.960938 29.390625 -20.171875 C 26.035156 -17.804688 22.515625 -16.363281 18.828125 -15.84375 C 15.140625 -15.332031 11.488281 -15.796875 7.875 -17.234375 L 24.15625 5.8125 L 18.5625 9.765625 L -21.46875 -46.875 L -16.109375 -50.65625 L -10.328125 -42.484375 C -10.578125 -46.398438 -9.84375 -50.066406 -8.125 -53.484375 C -6.414062 -56.898438 -3.828125 -59.828125 -0.359375 -62.265625 Z M 25.484375 -24.859375 C 28.367188 -26.898438 30.519531 -29.421875 31.9375 -32.421875 C 33.351562 -35.429688 33.859375 -38.640625 33.453125 -42.046875 C 33.046875 -45.453125 31.734375 -48.734375 29.515625 -51.890625 C 27.285156 -55.035156 24.640625 -57.351562 21.578125 -58.84375 C 18.523438 -60.34375 15.332031 -60.941406 12 -60.640625 C 8.675781 -60.335938 5.570312 -59.164062 2.6875 -57.125 C -0.25 -55.039062 -2.398438 -52.492188 -3.765625 -49.484375 C -5.128906 -46.472656 -5.617188 -43.273438 -5.234375 -39.890625 C -4.859375 -36.503906 -3.554688 -33.238281 -1.328125 -30.09375 C 0.890625 -26.9375 3.539062 -24.597656 6.625 -23.078125 C 9.707031 -21.566406 12.882812 -20.960938 16.15625 -21.265625 C 19.4375 -21.578125 22.546875 -22.773438 25.484375 -24.859375 Z M 25.484375 -24.859375 "/></g></g></g><g fill="#000000" fill-opacity="1"><g transform="translate(245.521793, 128.017559)"><g><path d="M 38.78125 -43.734375 L 0.375 -25.796875 C 2.957031 -21.191406 6.59375 -18.191406 11.28125 -16.796875 C 15.976562 -15.410156 20.859375 -15.898438 25.921875 -18.265625 C 28.773438 -19.597656 31.15625 -21.328125 33.0625 -23.453125 C 34.976562 -25.585938 36.347656 -28.050781 37.171875 -30.84375 L 42.53125 -28.46875 C 41.625 -25.0625 39.941406 -22.003906 37.484375 -19.296875 C 35.035156 -16.597656 31.976562 -14.394531 28.3125 -12.6875 C 23.59375 -10.488281 18.945312 -9.546875 14.375 -9.859375 C 9.800781 -10.171875 5.664062 -11.625 1.96875 -14.21875 C -1.71875 -16.8125 -4.609375 -20.351562 -6.703125 -24.84375 C -8.796875 -29.3125 -9.691406 -33.773438 -9.390625 -38.234375 C -9.097656 -42.703125 -7.710938 -46.71875 -5.234375 -50.28125 C -2.765625 -53.851562 0.59375 -56.628906 4.84375 -58.609375 C 9.082031 -60.597656 13.351562 -61.390625 17.65625 -60.984375 C 21.96875 -60.585938 25.90625 -59.078125 29.46875 -56.453125 C 33.03125 -53.828125 35.875 -50.25 38 -45.71875 Z M 7.328125 -53.28125 C 2.910156 -51.21875 -0.132812 -48.078125 -1.8125 -43.859375 C -3.5 -39.648438 -3.488281 -35.175781 -1.78125 -30.4375 L 30.78125 -45.640625 C 28.25 -49.992188 24.828125 -52.878906 20.515625 -54.296875 C 16.203125 -55.710938 11.804688 -55.375 7.328125 -53.28125 Z M 7.328125 -53.28125 "/></g></g></g><g fill="#000000" fill-opacity="1"><g transform="translate(294.906829, 105.411657)"><g><path d="M 3.46875 -43.671875 C 4 -47.398438 5.53125 -50.554688 8.0625 -53.140625 C 10.59375 -55.734375 14.101562 -57.71875 18.59375 -59.09375 L 20.53125 -52.734375 L 18.9375 -52.34375 C 13.84375 -50.78125 10.328125 -47.992188 8.390625 -43.984375 C 6.460938 -39.972656 6.363281 -35.140625 8.09375 -29.484375 L 15.65625 -4.796875 L 9.109375 -2.796875 L -5.71875 -51.25 L 0.5625 -53.15625 Z M 3.46875 -43.671875 "/></g></g></g><g fill="#000000" fill-opacity="1"><g transform="translate(329.44024, 95.036147)"><g/></g></g><g fill="#000000" fill-opacity="1"><g transform="translate(352.35374, 90.296334)"><g><path d="M 10.1875 -0.9375 C 8.78125 -0.738281 7.515625 -1.078125 6.390625 -1.953125 C 5.265625 -2.828125 4.597656 -4 4.390625 -5.46875 C 4.191406 -6.9375 4.515625 -8.234375 5.359375 -9.359375 C 6.203125 -10.484375 7.328125 -11.144531 8.734375 -11.34375 C 10.117188 -11.53125 11.390625 -11.203125 12.546875 -10.359375 C 13.710938 -9.523438 14.394531 -8.375 14.59375 -6.90625 C 14.800781 -5.4375 14.460938 -4.117188 13.578125 -2.953125 C 12.703125 -1.796875 11.570312 -1.125 10.1875 -0.9375 Z M 10.1875 -0.9375 "/></g></g></g><g fill="#000000" fill-opacity="1"><g transform="translate(370.742586, 87.583079)"><g/></g></g><g fill="#000000" fill-opacity="1"><g transform="translate(392.472572, 84.666735)"><g><path d="M 21.234375 -60.265625 L 19.875 -33.796875 L 54.703125 -32 L 54.375 -25.84375 L 19.546875 -27.640625 L 18.078125 0.9375 L 10.96875 0.5625 L 14.453125 -66.78125 L 60.640625 -64.390625 L 60.3125 -58.25 Z M 21.234375 -60.265625 "/></g></g></g><g fill="#000000" fill-opacity="1"><g transform="translate(449.360739, 88.121529)"><g><path d="M 23.703125 -36.84375 C 25.929688 -39.875 28.773438 -41.929688 32.234375 -43.015625 C 35.691406 -44.109375 39.71875 -44.195312 44.3125 -43.28125 L 43.015625 -36.765625 L 41.4375 -37.171875 C 36.207031 -38.210938 31.789062 -37.414062 28.1875 -34.78125 C 24.59375 -32.15625 22.222656 -27.941406 21.078125 -22.140625 L 16.0625 3.1875 L 9.34375 1.84375 L 19.1875 -47.859375 L 25.625 -46.578125 Z M 23.703125 -36.84375 "/></g></g></g><g fill="#000000" fill-opacity="1"><g transform="translate(483.67938, 93.843058)"><g><path d="M 28.375 10.5 C 23.78125 8.875 20 6.363281 17.03125 2.96875 C 14.0625 -0.425781 12.171875 -4.34375 11.359375 -8.78125 C 10.546875 -13.21875 10.960938 -17.769531 12.609375 -22.4375 C 14.242188 -27.09375 16.769531 -30.894531 20.1875 -33.84375 C 23.601562 -36.800781 27.523438 -38.660156 31.953125 -39.421875 C 36.378906 -40.179688 40.890625 -39.75 45.484375 -38.125 C 50.097656 -36.5 53.890625 -34.003906 56.859375 -30.640625 C 59.828125 -27.285156 61.703125 -23.390625 62.484375 -18.953125 C 63.273438 -14.523438 62.851562 -9.984375 61.21875 -5.328125 C 59.570312 -0.660156 57.050781 3.148438 53.65625 6.109375 C 50.269531 9.066406 46.363281 10.941406 41.9375 11.734375 C 37.507812 12.535156 32.988281 12.125 28.375 10.5 Z M 30.390625 4.765625 C 33.785156 5.953125 37.097656 6.25 40.328125 5.65625 C 43.566406 5.070312 46.445312 3.617188 48.96875 1.296875 C 51.488281 -1.015625 53.390625 -3.988281 54.671875 -7.625 C 55.941406 -11.257812 56.320312 -14.765625 55.8125 -18.140625 C 55.300781 -21.515625 53.96875 -24.453125 51.8125 -26.953125 C 49.664062 -29.453125 46.894531 -31.296875 43.5 -32.484375 C 40.113281 -33.679688 36.800781 -33.976562 33.5625 -33.375 C 30.320312 -32.78125 27.425781 -31.332031 24.875 -29.03125 C 22.332031 -26.726562 20.425781 -23.757812 19.15625 -20.125 C 17.875 -16.488281 17.5 -12.972656 18.03125 -9.578125 C 18.570312 -6.191406 19.921875 -3.253906 22.078125 -0.765625 C 24.234375 1.722656 27.003906 3.566406 30.390625 4.765625 Z M 30.390625 4.765625 "/></g></g></g><g fill="#000000" fill-opacity="1"><g transform="translate(536.288605, 111.647304)"><g><path d="M 56.0625 -26.75 C 61.570312 -23.59375 65.039062 -19.476562 66.46875 -14.40625 C 67.894531 -9.332031 66.851562 -3.726562 63.34375 2.40625 L 48.75 27.90625 L 42.8125 24.5 L 57.078125 -0.40625 C 59.691406 -4.976562 60.539062 -9.113281 59.625 -12.8125 C 58.707031 -16.519531 56.132812 -19.582031 51.90625 -22 C 47.164062 -24.71875 42.609375 -25.460938 38.234375 -24.234375 C 33.867188 -23.003906 30.269531 -19.90625 27.4375 -14.9375 L 14.21875 8.140625 L 8.265625 4.734375 L 33.4375 -39.234375 L 39.140625 -35.96875 L 34.5 -27.859375 C 37.644531 -29.609375 41.078125 -30.398438 44.796875 -30.234375 C 48.515625 -30.078125 52.269531 -28.914062 56.0625 -26.75 Z M 56.0625 -26.75 "/></g></g></g><g fill="#000000" fill-opacity="1"><g transform="translate(588.929185, 142.549941)"><g><path d="M 30.28125 20.109375 C 28.5625 20.210938 26.769531 19.910156 24.90625 19.203125 C 23.039062 18.503906 21.304688 17.515625 19.703125 16.234375 C 15.984375 13.285156 13.910156 10.003906 13.484375 6.390625 C 13.066406 2.785156 14.316406 -0.851562 17.234375 -4.53125 L 36.265625 -28.53125 L 29.171875 -34.15625 L 32.765625 -38.6875 L 39.859375 -33.0625 L 46.75 -41.734375 L 52.109375 -37.484375 L 45.21875 -28.8125 L 57.296875 -19.21875 L 53.703125 -14.6875 L 41.625 -24.28125 L 22.828125 -0.578125 C 20.953125 1.785156 20.113281 4.050781 20.3125 6.21875 C 20.519531 8.394531 21.734375 10.363281 23.953125 12.125 C 25.054688 13 26.265625 13.671875 27.578125 14.140625 C 28.890625 14.609375 30.179688 14.8125 31.453125 14.75 Z M 30.28125 20.109375 "/></g></g></g><g fill="#000000" fill-opacity="1"><g transform="translate(617.412395, 165.411984)"><g/></g></g><g fill="#000000" fill-opacity="1"><g transform="translate(634.177552, 179.367493)"><g><path d="M 41.59375 41.828125 L 36.78125 45.703125 L 6.890625 8.5625 L 59.421875 -33.71875 L 88.421875 2.296875 L 83.625 6.15625 L 59.09375 -24.3125 L 40.40625 -9.265625 L 62.265625 17.90625 L 57.53125 21.703125 L 35.671875 -5.46875 L 16.171875 10.234375 Z M 41.59375 41.828125 "/></g></g></g><g fill="#000000" fill-opacity="1"><g transform="translate(671.839363, 225.333467)"><g><path d="M 61.703125 7.140625 C 64.691406 12.742188 65.441406 18.070312 63.953125 23.125 C 62.460938 28.1875 58.601562 32.378906 52.375 35.703125 L 26.453125 49.546875 L 23.234375 43.515625 L 48.546875 30 C 53.203125 27.507812 56.125 24.453125 57.3125 20.828125 C 58.507812 17.203125 57.957031 13.242188 55.65625 8.953125 C 53.082031 4.128906 49.617188 1.078125 45.265625 -0.203125 C 40.921875 -1.484375 36.222656 -0.78125 31.171875 1.90625 L 7.71875 14.4375 L 4.484375 8.40625 L 49.1875 -15.46875 L 52.28125 -9.671875 L 44.03125 -5.265625 C 47.625 -5.078125 50.953125 -3.921875 54.015625 -1.796875 C 57.085938 0.316406 59.648438 3.296875 61.703125 7.140625 Z M 61.703125 7.140625 "/></g></g></g><g fill="#000000" fill-opacity="1"><g transform="translate(700.59958, 278.18373)"><g><path d="M 84.84375 31.984375 L 16.59375 53.25 L 14.640625 47 L 24.203125 44.015625 C 20.335938 43.078125 17.046875 41.265625 14.328125 38.578125 C 11.609375 35.890625 9.617188 32.519531 8.359375 28.46875 C 6.941406 23.9375 6.703125 19.503906 7.640625 15.171875 C 8.578125 10.847656 10.59375 7.0625 13.6875 3.8125 C 16.78125 0.5625 20.722656 -1.804688 25.515625 -3.296875 C 30.296875 -4.785156 34.878906 -5.070312 39.265625 -4.15625 C 43.660156 -3.238281 47.457031 -1.257812 50.65625 1.78125 C 53.851562 4.820312 56.160156 8.609375 57.578125 13.140625 C 58.796875 17.066406 59.082031 20.859375 58.4375 24.515625 C 57.800781 28.179688 56.234375 31.515625 53.734375 34.515625 L 82.796875 25.453125 Z M 14.34375 27.21875 C 15.394531 30.59375 17.125 33.398438 19.53125 35.640625 C 21.945312 37.878906 24.835938 39.332031 28.203125 40 C 31.566406 40.664062 35.09375 40.425781 38.78125 39.28125 C 42.457031 38.132812 45.492188 36.328125 47.890625 33.859375 C 50.285156 31.398438 51.835938 28.5625 52.546875 25.34375 C 53.265625 22.132812 53.097656 18.84375 52.046875 15.46875 C 50.972656 12.039062 49.226562 9.203125 46.8125 6.953125 C 44.40625 4.710938 41.515625 3.257812 38.140625 2.59375 C 34.773438 1.9375 31.253906 2.179688 27.578125 3.328125 C 23.890625 4.472656 20.847656 6.273438 18.453125 8.734375 C 16.066406 11.191406 14.515625 14.03125 13.796875 17.25 C 13.085938 20.46875 13.269531 23.789062 14.34375 27.21875 Z M 14.34375 27.21875 "/></g></g></g><g fill="#000000" fill-opacity="1"><g transform="translate(717.905168, 337.357807)"><g/></g></g><g fill="#000000" fill-opacity="1"><g transform="translate(721.881365, 360.408872)"><g><path d="M 0.59375 10.203125 C 0.4375 8.796875 0.816406 7.546875 1.734375 6.453125 C 2.648438 5.359375 3.84375 4.734375 5.3125 4.578125 C 6.789062 4.421875 8.070312 4.785156 9.15625 5.671875 C 10.25 6.554688 10.875 7.703125 11.03125 9.109375 C 11.175781 10.515625 10.8125 11.78125 9.9375 12.90625 C 9.0625 14.039062 7.882812 14.6875 6.40625 14.84375 C 4.9375 15 3.632812 14.613281 2.5 13.6875 C 1.375 12.769531 0.738281 11.609375 0.59375 10.203125 Z M 0.59375 10.203125 "/></g></g></g><g fill="#000000" fill-opacity="1"><g transform="translate(723.965713, 378.887354)"><g/></g></g><g fill="#000000" fill-opacity="1"><g transform="translate(726.769472, 400.271461)"><g><path d="M 29.140625 56.734375 C 27.734375 61.046875 25.488281 64.253906 22.40625 66.359375 C 19.320312 68.460938 15.539062 69.285156 11.0625 68.828125 C 5.3125 68.242188 1.101562 65.664062 -1.5625 61.09375 C -4.226562 56.53125 -5.132812 50.09375 -4.28125 41.78125 L -1.125 10.921875 L 65.953125 17.796875 L 63 46.75 C 62.226562 54.21875 60.128906 59.859375 56.703125 63.671875 C 53.285156 67.492188 48.828125 69.125 43.328125 68.5625 C 39.628906 68.175781 36.578125 66.9375 34.171875 64.84375 C 31.773438 62.757812 30.097656 60.054688 29.140625 56.734375 Z M 59.390625 24.28125 L 35.0625 21.796875 L 32.875 43.171875 C 32.3125 48.597656 32.921875 52.890625 34.703125 56.046875 C 36.484375 59.203125 39.351562 60.984375 43.3125 61.390625 C 47.269531 61.796875 50.429688 60.628906 52.796875 57.890625 C 55.171875 55.160156 56.640625 51.082031 57.203125 45.65625 Z M 1.578125 42.28125 C 0.960938 48.289062 1.519531 52.9375 3.25 56.21875 C 4.976562 59.5 8.015625 61.359375 12.359375 61.796875 C 20.734375 62.660156 25.546875 57.019531 26.796875 44.875 L 29.21875 21.203125 L 4 18.609375 Z M 1.578125 42.28125 "/></g></g></g><g fill="#000000" fill-opacity="1"><g transform="translate(719.623801, 467.444638)"><g><path d="M 41.171875 40.6875 C 39.285156 47.019531 36.253906 51.40625 32.078125 53.84375 C 27.898438 56.289062 22.703125 56.59375 16.484375 54.75 L -13.625 45.796875 L -11.75 39.53125 L -4.171875 41.78125 C -6.253906 39.550781 -7.582031 36.789062 -8.15625 33.5 C -8.726562 30.21875 -8.425781 26.609375 -7.25 22.671875 C -5.632812 17.242188 -3.0625 13.316406 0.46875 10.890625 C 4.007812 8.460938 7.90625 7.878906 12.15625 9.140625 C 16.28125 10.367188 19.160156 12.847656 20.796875 16.578125 C 22.429688 20.316406 22.28125 25.453125 20.34375 31.984375 L 15.75 47.40625 L 18.71875 48.28125 C 22.894531 49.53125 26.425781 49.3125 29.3125 47.625 C 32.195312 45.9375 34.304688 42.84375 35.640625 38.34375 C 36.554688 35.269531 36.925781 32.160156 36.75 29.015625 C 36.582031 25.878906 35.898438 23.03125 34.703125 20.46875 L 40.5 18.96875 C 41.851562 22.0625 42.582031 25.5 42.6875 29.28125 C 42.800781 33.0625 42.296875 36.863281 41.171875 40.6875 Z M -2.375 25.234375 C -3.476562 28.929688 -3.570312 32.351562 -2.65625 35.5 C -1.75 38.644531 0.109375 41.34375 2.921875 43.59375 L 10.875 45.953125 L 15.40625 30.703125 C 17.875 22.398438 16.210938 17.390625 10.421875 15.671875 C 7.578125 14.828125 5.019531 15.238281 2.75 16.90625 C 0.476562 18.570312 -1.226562 21.347656 -2.375 25.234375 Z M -2.375 25.234375 "/></g></g></g><g fill="#000000" fill-opacity="1"><g transform="translate(704.899032, 517.815883)"><g><path d="M -13.703125 27.3125 C -11.523438 22.800781 -8.597656 19.238281 -4.921875 16.625 C -1.242188 14.007812 2.863281 12.546875 7.40625 12.234375 C 11.945312 11.929688 16.445312 12.859375 20.90625 15.015625 C 25.351562 17.160156 28.851562 20.09375 31.40625 23.8125 C 33.957031 27.539062 35.359375 31.660156 35.609375 36.171875 C 35.859375 40.679688 34.894531 45.191406 32.71875 49.703125 C 30.820312 53.628906 28.359375 56.769531 25.328125 59.125 C 22.304688 61.488281 18.890625 62.851562 15.078125 63.21875 L 14.171875 57.109375 C 17.140625 56.691406 19.75 55.597656 22 53.828125 C 24.25 52.054688 26.03125 49.816406 27.34375 47.109375 C 28.9375 43.804688 29.628906 40.476562 29.421875 37.125 C 29.210938 33.78125 28.101562 30.71875 26.09375 27.9375 C 24.09375 25.15625 21.359375 22.929688 17.890625 21.265625 C 14.359375 19.554688 10.890625 18.785156 7.484375 18.953125 C 4.078125 19.128906 1.003906 20.179688 -1.734375 22.109375 C -4.472656 24.035156 -6.640625 26.648438 -8.234375 29.953125 C -9.546875 32.660156 -10.210938 35.4375 -10.234375 38.28125 C -10.253906 41.125 -9.5 43.835938 -7.96875 46.421875 L -13.3125 49.53125 C -15.382812 46.320312 -16.4375 42.785156 -16.46875 38.921875 C -16.5 35.054688 -15.578125 31.1875 -13.703125 27.3125 Z M -13.703125 27.3125 "/></g></g></g><g fill="#000000" fill-opacity="1"><g transform="translate(683.702688, 562.933518)"><g><path d="M 4.5625 37.8125 L 2.421875 21.703125 L -9.40625 13.40625 L -5.46875 7.796875 L 53.0625 48.828125 L 49.125 54.4375 L 9.453125 26.625 L 14.71875 67.265625 L 9.84375 74.21875 L 5.359375 44.578125 L -32.796875 46.78125 L -27.984375 39.921875 Z M 4.5625 37.8125 "/></g></g></g><g fill="#000000" fill-opacity="1"><g transform="translate(651.748667, 607.147414)"><g/></g></g><g fill="#000000" fill-opacity="1"><g transform="translate(638.352703, 624.335556)"><g><path d="M -40.484375 42.921875 L -44.5 38.234375 L -8.328125 7.15625 L 35.625 58.3125 L 0.546875 88.453125 L -3.46875 83.78125 L 26.203125 58.28125 L 10.5625 40.078125 L -15.890625 62.8125 L -19.84375 58.203125 L 6.609375 35.46875 L -9.71875 16.484375 Z M -40.484375 42.921875 "/></g></g></g><g fill="#000000" fill-opacity="1"><g transform="translate(593.619927, 663.448134)"><g><path d="M -5.15625 61.890625 C -10.664062 65.066406 -15.96875 65.992188 -21.0625 64.671875 C -26.164062 63.347656 -30.476562 59.625 -34 53.5 L -48.671875 28.03125 L -42.75 24.625 L -28.421875 49.5 C -25.796875 54.0625 -22.648438 56.878906 -18.984375 57.953125 C -15.316406 59.035156 -11.375 58.359375 -7.15625 55.921875 C -2.425781 53.203125 0.503906 49.644531 1.640625 45.25 C 2.785156 40.851562 1.929688 36.175781 -0.921875 31.21875 L -14.1875 8.171875 L -8.265625 4.75 L 17.015625 48.65625 L 11.328125 51.9375 L 6.671875 43.84375 C 6.597656 47.445312 5.550781 50.8125 3.53125 53.9375 C 1.519531 57.0625 -1.375 59.710938 -5.15625 61.890625 Z M -5.15625 61.890625 "/></g></g></g><g fill="#000000" fill-opacity="1"><g transform="translate(541.705987, 693.899974)"><g><path d="M -29.265625 85.8125 L -52.703125 18.28125 L -46.515625 16.140625 L -43.234375 25.609375 C -42.410156 21.710938 -40.695312 18.363281 -38.09375 15.5625 C -35.5 12.757812 -32.195312 10.664062 -28.1875 9.28125 C -23.695312 7.71875 -19.273438 7.332031 -14.921875 8.125 C -10.566406 8.925781 -6.710938 10.820312 -3.359375 13.8125 C -0.015625 16.800781 2.476562 20.660156 4.125 25.390625 C 5.757812 30.128906 6.1875 34.703125 5.40625 39.109375 C 4.632812 43.523438 2.78125 47.378906 -0.15625 50.671875 C -3.09375 53.972656 -6.804688 56.40625 -11.296875 57.96875 C -15.179688 59.3125 -18.960938 59.71875 -22.640625 59.1875 C -26.328125 58.664062 -29.707031 57.210938 -32.78125 54.828125 L -22.796875 83.578125 Z M -26.75 15.203125 C -30.082031 16.359375 -32.832031 18.175781 -35 20.65625 C -37.164062 23.144531 -38.523438 26.082031 -39.078125 29.46875 C -39.640625 32.863281 -39.285156 36.378906 -38.015625 40.015625 C -36.753906 43.660156 -34.851562 46.640625 -32.3125 48.953125 C -29.78125 51.265625 -26.894531 52.722656 -23.65625 53.328125 C -20.414062 53.941406 -17.128906 53.671875 -13.796875 52.515625 C -10.398438 51.335938 -7.617188 49.503906 -5.453125 47.015625 C -3.285156 44.535156 -1.925781 41.601562 -1.375 38.21875 C -0.820312 34.832031 -1.175781 31.316406 -2.4375 27.671875 C -3.707031 24.035156 -5.609375 21.054688 -8.140625 18.734375 C -10.671875 16.421875 -13.554688 14.957031 -16.796875 14.34375 C -20.035156 13.738281 -23.351562 14.023438 -26.75 15.203125 Z M -26.75 15.203125 "/></g></g></g><g fill="#000000" fill-opacity="1"><g transform="translate(483.111416, 713.098562)"><g/></g></g><g fill="#000000" fill-opacity="1"><g transform="translate(460.208197, 717.802477)"><g><path d="M -10.1875 0.90625 C -8.78125 0.71875 -7.515625 1.0625 -6.390625 1.9375 C -5.265625 2.820312 -4.601562 4 -4.40625 5.46875 C -4.195312 6.9375 -4.515625 8.226562 -5.359375 9.34375 C -6.210938 10.46875 -7.34375 11.125 -8.75 11.3125 C -10.144531 11.507812 -11.421875 11.1875 -12.578125 10.34375 C -13.734375 9.5 -14.414062 8.34375 -14.625 6.875 C -14.820312 5.40625 -14.476562 4.09375 -13.59375 2.9375 C -12.71875 1.78125 -11.582031 1.101562 -10.1875 0.90625 Z M -10.1875 0.90625 "/></g></g></g><g fill="#000000" fill-opacity="1"><g transform="translate(441.797426, 720.486799)"><g/></g></g></svg>