<svg xmlns="http://www.w3.org/2000/svg" xmlns:xlink="http://www.w3.org/1999/xlink" width="200" zoomAndPan="magnify" viewBox="0 0 150 149.999998" height="200" preserveAspectRatio="xMidYMid meet" version="1.0"><defs><clipPath id="c16763955f"><path d="M 6.75 97 L 67 97 L 67 126 L 6.75 126 Z M 6.75 97 " clip-rule="nonzero"/></clipPath></defs><path fill="#000000" d="M 102.578125 149.960938 C 102.226562 149.960938 101.875 149.925781 101.53125 149.859375 C 101.183594 149.789062 100.847656 149.6875 100.519531 149.550781 C 100.195312 149.417969 99.886719 149.25 99.589844 149.054688 C 99.296875 148.859375 99.027344 148.636719 98.777344 148.386719 C 98.527344 148.136719 98.304688 147.867188 98.109375 147.570312 C 97.910156 147.277344 97.746094 146.96875 97.609375 146.640625 C 97.476562 146.316406 97.375 145.980469 97.304688 145.632812 C 97.234375 145.285156 97.203125 144.9375 97.203125 144.582031 L 97.203125 116.761719 C 97.203125 116.5625 97.210938 116.363281 97.234375 116.164062 C 97.441406 114.355469 97.46875 112.539062 97.316406 110.722656 C 97.167969 108.90625 96.839844 107.121094 96.339844 105.367188 C 95.839844 103.613281 95.171875 101.925781 94.339844 100.304688 C 93.507812 98.683594 92.523438 97.15625 91.394531 95.726562 C 91.082031 95.332031 90.828125 94.898438 90.636719 94.429688 C 90.445312 93.964844 90.324219 93.480469 90.269531 92.976562 C 90.214844 92.476562 90.230469 91.976562 90.316406 91.476562 C 90.40625 90.980469 90.558594 90.503906 90.777344 90.050781 C 91 89.59375 91.277344 89.179688 91.617188 88.804688 C 91.953125 88.429688 92.335938 88.105469 92.765625 87.839844 C 93.191406 87.570312 93.648438 87.367188 94.132812 87.230469 C 94.621094 87.089844 95.113281 87.019531 95.621094 87.019531 C 113.25 87.019531 131.988281 75.496094 131.988281 54.132812 C 131.988281 54.015625 131.988281 53.902344 131.988281 53.789062 C 132.226562 50.070312 131.832031 46.421875 130.8125 42.839844 C 129.789062 39.257812 128.195312 35.949219 126.035156 32.914062 C 125.578125 32.277344 125.277344 31.574219 125.128906 30.804688 C 124.980469 30.035156 125 29.269531 125.183594 28.511719 C 126.488281 23.113281 126.808594 17.65625 126.148438 12.144531 C 123.167969 13.371094 118.691406 15.710938 112.746094 20.175781 C 112.140625 20.625 111.46875 20.9375 110.734375 21.109375 C 110 21.277344 109.257812 21.292969 108.515625 21.152344 C 99.652344 19.46875 90.710938 18.625 81.6875 18.625 C 72.664062 18.625 63.722656 19.46875 54.859375 21.152344 C 54.117188 21.292969 53.378906 21.277344 52.640625 21.109375 C 51.90625 20.9375 51.234375 20.625 50.632812 20.175781 C 44.652344 15.652344 40.15625 13.328125 37.175781 12.113281 C 36.460938 17.617188 36.804688 23.054688 38.207031 28.425781 C 38.410156 29.199219 38.4375 29.976562 38.289062 30.761719 C 38.144531 31.546875 37.839844 32.265625 37.375 32.914062 C 35.207031 35.945312 33.609375 39.25 32.585938 42.832031 C 31.5625 46.414062 31.171875 50.066406 31.410156 53.78125 C 31.410156 53.902344 31.410156 54.019531 31.410156 54.136719 C 31.410156 75.5 50.148438 87.027344 67.777344 87.027344 C 68.285156 87.023438 68.78125 87.09375 69.265625 87.234375 C 69.753906 87.375 70.210938 87.578125 70.640625 87.847656 C 71.066406 88.117188 71.453125 88.441406 71.789062 88.816406 C 72.125 89.195312 72.40625 89.609375 72.625 90.066406 C 72.84375 90.523438 72.996094 91 73.082031 91.5 C 73.167969 92 73.183594 92.5 73.125 93.003906 C 73.070312 93.503906 72.945312 93.992188 72.75 94.457031 C 72.558594 94.925781 72.304688 95.359375 71.988281 95.753906 C 69.691406 98.617188 68.042969 101.816406 67.039062 105.347656 C 66.035156 108.894531 65.742188 112.496094 66.164062 116.15625 C 66.191406 116.355469 66.203125 116.554688 66.203125 116.757812 L 66.203125 144.582031 C 66.203125 144.9375 66.167969 145.285156 66.097656 145.632812 C 66.027344 145.980469 65.925781 146.316406 65.792969 146.640625 C 65.65625 146.96875 65.492188 147.277344 65.292969 147.570312 C 65.097656 147.867188 64.875 148.136719 64.625 148.386719 C 64.375 148.636719 64.105469 148.859375 63.8125 149.054688 C 63.515625 149.25 63.207031 149.417969 62.882812 149.550781 C 62.554688 149.6875 62.21875 149.789062 61.871094 149.859375 C 61.527344 149.925781 61.175781 149.960938 60.824219 149.960938 C 60.46875 149.960938 60.121094 149.925781 59.773438 149.859375 C 59.425781 149.789062 59.089844 149.6875 58.765625 149.550781 C 58.4375 149.417969 58.128906 149.25 57.835938 149.054688 C 57.542969 148.859375 57.269531 148.636719 57.019531 148.386719 C 56.769531 148.136719 56.546875 147.867188 56.351562 147.570312 C 56.15625 147.277344 55.988281 146.96875 55.855469 146.640625 C 55.71875 146.316406 55.617188 145.980469 55.546875 145.632812 C 55.480469 145.285156 55.445312 144.9375 55.445312 144.582031 L 55.445312 117.046875 C 54.914062 112.089844 55.332031 107.214844 56.691406 102.417969 C 57.21875 100.554688 57.882812 98.742188 58.6875 96.980469 C 54.457031 96.265625 50.390625 95.019531 46.484375 93.25 C 42.578125 91.480469 38.960938 89.238281 35.636719 86.53125 C 26.03125 78.515625 20.734375 67.082031 20.664062 54.308594 C 20.394531 49.808594 20.820312 45.375 21.941406 41.003906 C 23.0625 36.636719 24.824219 32.546875 27.230469 28.730469 C 26.367188 24.65625 25.984375 20.535156 26.078125 16.371094 C 26.175781 12.207031 26.746094 8.109375 27.796875 4.078125 C 27.945312 3.5 28.183594 2.964844 28.511719 2.46875 C 28.839844 1.972656 29.238281 1.539062 29.710938 1.175781 C 30.183594 0.8125 30.699219 0.535156 31.261719 0.34375 C 31.828125 0.148438 32.40625 0.0546875 33 0.0546875 C 34.398438 0.0546875 41.789062 0.558594 55.1875 10.164062 C 63.960938 8.632812 72.796875 7.867188 81.703125 7.867188 C 90.609375 7.867188 99.449219 8.632812 108.222656 10.164062 C 121.617188 0.558594 129.015625 0.0546875 130.40625 0.0546875 C 131.007812 0.0546875 131.59375 0.152344 132.164062 0.347656 C 132.734375 0.546875 133.257812 0.828125 133.730469 1.203125 C 134.203125 1.574219 134.605469 2.011719 134.929688 2.519531 C 135.257812 3.027344 135.492188 3.574219 135.632812 4.15625 C 136.613281 8.179688 137.144531 12.257812 137.238281 16.394531 C 137.328125 20.535156 136.972656 24.632812 136.171875 28.691406 C 138.582031 32.515625 140.347656 36.609375 141.472656 40.984375 C 142.597656 45.359375 143.027344 49.800781 142.761719 54.308594 C 142.710938 67.078125 137.382812 78.511719 127.78125 86.53125 C 124.453125 89.242188 120.832031 91.484375 116.917969 93.253906 C 113.007812 95.027344 108.933594 96.269531 104.699219 96.984375 C 106.132812 100.121094 107.125 103.390625 107.679688 106.792969 C 108.238281 110.195312 108.335938 113.613281 107.972656 117.042969 L 107.972656 144.582031 C 107.972656 144.9375 107.941406 145.289062 107.871094 145.636719 C 107.800781 145.980469 107.699219 146.320312 107.5625 146.644531 C 107.425781 146.972656 107.261719 147.28125 107.0625 147.578125 C 106.867188 147.871094 106.644531 148.144531 106.394531 148.390625 C 106.140625 148.640625 105.871094 148.867188 105.574219 149.0625 C 105.28125 149.257812 104.96875 149.421875 104.644531 149.558594 C 104.316406 149.691406 103.976562 149.792969 103.632812 149.863281 C 103.285156 149.929688 102.933594 149.964844 102.578125 149.960938 Z M 102.578125 149.960938 " fill-opacity="1" fill-rule="nonzero"/><g clip-path="url(#c16763955f)"><path fill="#000000" d="M 45.074219 126 C 33.179688 126 26.144531 119.160156 20.96875 114.125 C 17.207031 110.464844 14.757812 108.210938 12.128906 108.210938 C 11.773438 108.210938 11.425781 108.175781 11.078125 108.105469 C 10.734375 108.039062 10.394531 107.9375 10.070312 107.800781 C 9.742188 107.667969 9.433594 107.5 9.140625 107.304688 C 8.847656 107.109375 8.574219 106.886719 8.324219 106.636719 C 8.074219 106.386719 7.851562 106.113281 7.65625 105.820312 C 7.460938 105.527344 7.292969 105.21875 7.160156 104.890625 C 7.023438 104.5625 6.921875 104.226562 6.851562 103.882812 C 6.785156 103.535156 6.75 103.1875 6.75 102.832031 C 6.75 102.480469 6.785156 102.128906 6.851562 101.78125 C 6.921875 101.4375 7.023438 101.101562 7.160156 100.773438 C 7.292969 100.449219 7.460938 100.136719 7.65625 99.84375 C 7.851562 99.550781 8.074219 99.277344 8.324219 99.03125 C 8.574219 98.78125 8.847656 98.558594 9.140625 98.359375 C 9.433594 98.164062 9.742188 98 10.070312 97.863281 C 10.394531 97.726562 10.734375 97.625 11.078125 97.558594 C 11.425781 97.488281 11.773438 97.453125 12.128906 97.453125 C 19.261719 97.453125 24.152344 102.214844 28.46875 106.410156 C 35.597656 113.339844 41.757812 119.316406 58.648438 111.835938 C 58.972656 111.6875 59.308594 111.570312 59.65625 111.488281 C 60 111.40625 60.351562 111.359375 60.707031 111.347656 C 61.066406 111.335938 61.417969 111.359375 61.769531 111.414062 C 62.121094 111.472656 62.464844 111.566406 62.796875 111.691406 C 63.128906 111.816406 63.449219 111.976562 63.75 112.164062 C 64.050781 112.351562 64.332031 112.570312 64.589844 112.8125 C 64.847656 113.058594 65.082031 113.328125 65.285156 113.617188 C 65.492188 113.90625 65.667969 114.214844 65.8125 114.542969 C 65.957031 114.867188 66.066406 115.203125 66.144531 115.550781 C 66.222656 115.898438 66.265625 116.25 66.273438 116.605469 C 66.28125 116.960938 66.253906 117.316406 66.191406 117.667969 C 66.128906 118.015625 66.03125 118.359375 65.902344 118.691406 C 65.769531 119.019531 65.609375 119.335938 65.417969 119.636719 C 65.222656 119.933594 65.003906 120.210938 64.753906 120.46875 C 64.507812 120.722656 64.238281 120.953125 63.941406 121.152344 C 63.648438 121.355469 63.339844 121.527344 63.011719 121.667969 C 56.015625 124.777344 50.109375 126 45.074219 126 Z M 45.074219 126 " fill-opacity="1" fill-rule="nonzero"/></g></svg>