<svg xmlns="http://www.w3.org/2000/svg" xmlns:xlink="http://www.w3.org/1999/xlink" width="200" zoomAndPan="magnify" viewBox="0 0 150 149.999998" height="200" preserveAspectRatio="xMidYMid meet" version="1.0"><defs><clipPath id="4ffb43e276"><path d="M 2 47 L 39 47 L 39 149.8125 L 2 149.8125 Z M 2 47 " clip-rule="nonzero"/></clipPath><clipPath id="69ad59ae4d"><path d="M 5 0.5625 L 42 0.5625 L 42 40 L 5 40 Z M 5 0.5625 " clip-rule="nonzero"/></clipPath></defs><path fill="#0071bc" d="M 129.429688 55.835938 C 149.992188 73.996094 146.765625 116.492188 145.066406 140.714844 C 145.011719 141.609375 144.636719 142.300781 144.144531 142.820312 C 144.003906 143.714844 143.453125 144.582031 142.503906 144.84375 C 133.953125 147.179688 122.894531 145.332031 114.253906 143.773438 C 113.359375 143.628906 113.015625 142.9375 113.042969 142.242188 C 112.988281 142.128906 112.988281 141.984375 112.957031 141.867188 C 112.410156 141.347656 112.066406 140.539062 112.179688 139.472656 C 113.074219 129.800781 113.5625 120.128906 113.332031 110.398438 C 113.21875 105.578125 113.015625 100.640625 112.46875 95.851562 C 111.257812 85.023438 100.488281 73.332031 90.382812 82.136719 C 76.15625 94.492188 82.578125 126.683594 83.671875 143.195312 C 83.757812 144.324219 83.007812 144.929688 82.175781 145.074219 C 81.914062 145.648438 81.453125 146.171875 80.675781 146.457031 C 76.042969 148.132812 70.511719 148.046875 65.617188 148.132812 C 61.238281 148.246094 56.429688 148.625 52.511719 146.429688 C 52.398438 146.371094 52.339844 146.257812 52.253906 146.140625 C 51.363281 145.738281 50.671875 144.929688 50.613281 143.6875 C 49.804688 113.664062 46.871094 80.664062 52.945312 51.128906 C 53.058594 50.582031 53.347656 50.265625 53.722656 50.089844 C 53.925781 49.945312 54.125 49.800781 54.386719 49.714844 C 61.238281 47.78125 70.453125 50.089844 77.453125 50.871094 C 79.667969 51.101562 81.859375 51.160156 83.039062 53.292969 C 83.472656 54.101562 83.671875 55.140625 83.730469 56.238281 C 94.703125 45.152344 118.429688 46.136719 129.429688 55.835938 Z M 129.429688 55.835938 " fill-opacity="1" fill-rule="nonzero"/><g clip-path="url(#4ffb43e276)"><path fill="#0071bc" d="M 37.539062 52.804688 C 37.914062 53.351562 38.144531 53.988281 38.085938 54.679688 C 35.179688 84.964844 34.6875 115.277344 36.589844 145.648438 C 36.703125 147.613281 34.917969 149 33.164062 149.113281 C 24.464844 149.605469 15.796875 149.777344 7.074219 149.605469 C 5.144531 149.574219 3.703125 148.046875 3.644531 146.167969 C 2.609375 115.914062 -0.0117188 81.933594 7.015625 52.253906 C 7.214844 51.417969 7.734375 50.984375 8.339844 50.8125 C 8.367188 50.726562 8.425781 50.640625 8.484375 50.550781 C 8.339844 49.945312 8.597656 49.28125 9.144531 48.964844 C 12.226562 46.972656 16.632812 48.039062 20.203125 48.011719 C 25.328125 47.953125 30.484375 47.808594 35.582031 48.097656 C 38.316406 48.273438 38.949219 51.273438 37.539062 52.804688 Z M 37.539062 52.804688 " fill-opacity="1" fill-rule="nonzero"/></g><g clip-path="url(#69ad59ae4d)"><path fill="#0071bc" d="M 23.628906 39.464844 C 22.566406 39.554688 21.558594 39.464844 20.605469 39.292969 C 7.476562 41.457031 2.40625 21.394531 8.195312 11.289062 C 11.535156 5.457031 18.1875 0.636719 25.097656 0.609375 C 32.210938 0.609375 37.972656 6.84375 40.246094 13.136719 C 44.738281 25.492188 37.019531 38.570312 23.628906 39.464844 Z M 23.628906 39.464844 " fill-opacity="1" fill-rule="nonzero"/></g></svg>