<svg xmlns="http://www.w3.org/2000/svg" xmlns:xlink="http://www.w3.org/1999/xlink" width="200" zoomAndPan="magnify" viewBox="0 0 150 149.999998" height="200" preserveAspectRatio="xMidYMid meet" version="1.0"><path fill="#01b8d8" d="M 72.828125 115.890625 C 50.082031 115.890625 40.597656 100.125 40.207031 99.457031 C 39.464844 98.183594 39.457031 96.617188 40.191406 95.339844 C 40.925781 94.0625 42.285156 93.269531 43.757812 93.269531 C 49.128906 93.269531 53.054688 92.191406 54.816406 90.222656 C 54.851562 90.179688 54.886719 90.140625 54.925781 90.097656 C 46.898438 86.847656 41.265625 81.679688 38.148438 74.699219 C 31.234375 59.214844 39.667969 40.6875 40.027344 39.90625 C 40.609375 38.652344 41.789062 37.773438 43.15625 37.570312 C 44.53125 37.375 45.90625 37.875 46.828125 38.90625 C 46.980469 39.078125 60.972656 54.636719 75.082031 57.164062 C 75.617188 54.203125 76.886719 50.367188 79.851562 47.269531 C 83 43.984375 87.265625 42.3125 92.527344 42.3125 C 104.421875 42.3125 108.007812 47.992188 109.929688 51.042969 C 110.015625 51.1875 110.101562 51.328125 110.183594 51.457031 L 119.097656 51.457031 C 120.546875 51.457031 121.886719 52.226562 122.628906 53.472656 C 123.371094 54.71875 123.398438 56.265625 122.703125 57.542969 L 115.949219 69.910156 C 116.835938 82.632812 112.523438 106.375 89.820312 113.207031 C 83.910156 114.988281 78.195312 115.890625 72.828125 115.890625 Z M 52.105469 100.597656 C 56.125 103.957031 62.835938 107.667969 72.828125 107.667969 C 77.390625 107.667969 82.3125 106.882812 87.457031 105.335938 C 110.394531 98.429688 107.691406 69.738281 107.660156 69.453125 C 107.574219 68.625 107.738281 67.789062 108.144531 67.058594 L 112.171875 59.679688 L 109.074219 59.679688 C 105.65625 59.679688 103.980469 57.019531 102.980469 55.429688 C 101.53125 53.136719 99.890625 50.535156 92.527344 50.535156 C 89.550781 50.535156 87.347656 51.324219 85.789062 52.957031 C 82.828125 56.042969 82.921875 61.386719 82.925781 61.441406 C 82.972656 62.5625 82.5625 63.652344 81.789062 64.460938 C 81.011719 65.269531 79.9375 65.730469 78.820312 65.730469 C 65.390625 65.730469 52.25 55.457031 45.445312 49.152344 C 43.8125 54.882812 42.292969 63.867188 45.660156 71.375 C 48.234375 77.125 53.4375 81.226562 61.113281 83.574219 C 62.679688 84.054688 63.816406 85.421875 63.996094 87.050781 C 64.046875 87.53125 64.414062 91.820312 60.933594 95.703125 C 58.847656 98.042969 55.894531 99.679688 52.105469 100.597656 Z M 52.105469 100.597656 " fill-opacity="1" fill-rule="nonzero"/><path fill="#01b8d8" d="M 74.996094 149.789062 C 33.664062 149.789062 0.0390625 116.160156 0.0390625 74.828125 C 0.0390625 33.496094 33.664062 -0.128906 74.996094 -0.128906 C 116.328125 -0.128906 149.957031 33.496094 149.957031 74.828125 C 149.957031 93.882812 142.792969 112.050781 129.78125 125.984375 C 128.230469 127.644531 125.625 127.730469 123.972656 126.183594 C 122.316406 124.636719 122.226562 122.035156 123.773438 120.375 C 135.359375 107.972656 141.734375 91.792969 141.734375 74.828125 C 141.734375 38.027344 111.796875 8.089844 74.996094 8.089844 C 38.195312 8.089844 8.257812 38.027344 8.257812 74.828125 C 8.257812 111.625 38.195312 141.566406 74.996094 141.566406 C 86.375 141.566406 97.613281 138.652344 107.496094 133.136719 C 109.484375 132.035156 111.984375 132.742188 113.089844 134.722656 C 114.195312 136.707031 113.484375 139.207031 111.503906 140.316406 C 100.402344 146.515625 87.773438 149.789062 74.996094 149.789062 Z M 74.996094 149.789062 " fill-opacity="1" fill-rule="nonzero"/></svg>