<svg xmlns="http://www.w3.org/2000/svg" xmlns:xlink="http://www.w3.org/1999/xlink" width="200" zoomAndPan="magnify" viewBox="0 0 150 149.999998" height="200" preserveAspectRatio="xMidYMid meet" version="1.0"><path fill="#cf2224" d="M 145.445312 123.1875 C 145.339844 135.449219 135.308594 145.453125 123.03125 145.453125 L 27.164062 145.453125 C 22.582031 145.453125 18.285156 144.207031 14.441406 141.710938 C 9.03125 138.199219 5.378906 132.109375 4.667969 125.722656 C 4.492188 124.125 4.539062 122.496094 4.539062 120.890625 L 4.539062 28.207031 C 4.539062 25.566406 4.730469 23 5.464844 20.4375 C 7.28125 14.113281 12.019531 9.074219 17.941406 6.367188 C 22.828125 4.128906 28.277344 4.546875 33.503906 4.546875 L 123.179688 4.546875 C 135.421875 4.546875 145.445312 14.746094 145.445312 26.9375 L 145.445312 123.1875 C 145.445312 126.113281 149.984375 126.113281 149.984375 123.1875 L 149.984375 33.675781 C 149.984375 28.261719 150.261719 22.890625 148.382812 17.6875 C 144.476562 6.859375 134.019531 0.0078125 122.636719 0.0078125 L 26.867188 0.0078125 C 20.773438 0.0078125 14.839844 2.089844 10.078125 5.886719 C 4.640625 10.21875 1.113281 16.566406 0.226562 23.449219 C -0.0078125 25.273438 0 27.082031 0 28.914062 L 0 121.628906 C 0 124.175781 0.136719 126.683594 0.675781 129.1875 C 2.132812 135.941406 6.46875 141.808594 12.148438 145.632812 C 16.5 148.558594 21.796875 149.992188 27.015625 149.992188 L 122.898438 149.992188 C 137.699219 149.992188 149.859375 138 149.984375 123.1875 C 150.007812 120.257812 145.46875 120.261719 145.445312 123.1875 " fill-opacity="1" fill-rule="nonzero"/><path fill="#cf2224" d="M 53.6875 36.136719 C 70.683594 46.84375 87.6875 57.550781 104.6875 68.261719 C 106.726562 69.546875 108.765625 70.832031 110.808594 72.113281 C 111.828125 72.757812 112.847656 73.402344 113.867188 74.042969 C 114.375 74.363281 114.886719 74.6875 115.394531 75.007812 C 115.734375 75.222656 116.074219 75.433594 116.414062 75.648438 C 117.308594 76.414062 117.480469 75.863281 116.925781 74 C 112.675781 76.679688 108.425781 79.355469 104.171875 82.03125 C 95.671875 87.386719 87.171875 92.742188 78.671875 98.09375 C 74.589844 100.667969 70.511719 103.238281 66.433594 105.804688 C 64.394531 107.09375 62.355469 108.375 60.3125 109.660156 C 59.292969 110.304688 58.277344 110.949219 57.257812 111.589844 C 56.234375 112.230469 54.949219 113.421875 53.777344 113.726562 C 54.359375 113.800781 54.941406 113.875 55.527344 113.953125 C 55.9375 114.75 56.082031 114.746094 55.960938 113.941406 L 55.960938 36.019531 C 56.097656 35.183594 55.898438 35.199219 55.367188 36.070312 C 54.980469 36.171875 54.601562 36.277344 54.21875 36.378906 L 54.226562 36.363281 C 57.007812 37.308594 58.1875 32.925781 55.433594 31.984375 C 53.527344 31.339844 51.421875 32.777344 51.421875 34.828125 L 51.421875 113.339844 C 51.421875 114.617188 51.222656 116.097656 52.175781 117.113281 C 54.078125 119.136719 56.148438 117.648438 58.015625 116.46875 L 64.644531 112.292969 C 68.894531 109.617188 73.144531 106.945312 77.394531 104.265625 C 85.894531 98.910156 94.390625 93.554688 102.894531 88.203125 C 107.144531 85.523438 111.394531 82.84375 115.644531 80.171875 C 117.382812 79.074219 120.171875 77.996094 121.003906 76.015625 C 122.050781 73.519531 119.402344 72.167969 117.683594 71.089844 C 100.6875 60.378906 83.6875 49.671875 66.6875 38.960938 C 63.117188 36.714844 59.546875 34.464844 55.976562 32.214844 C 53.492188 30.648438 51.214844 34.578125 53.6875 36.136719 " fill-opacity="1" fill-rule="nonzero"/><path fill="#cf2224" d="M 33.597656 35.488281 L 43.882812 35.488281 C 43.128906 35.488281 43.242188 34.230469 43.242188 35.503906 L 43.242188 115.796875 C 43.242188 115.300781 44.433594 115.152344 43.546875 115.152344 L 34.253906 115.152344 C 33.023438 115.152344 34.28125 115.027344 34.28125 115.820312 L 34.28125 35.050781 C 34.277344 34.378906 34.34375 35.402344 33.597656 35.488281 C 34.828125 35.34375 35.867188 34.5625 35.867188 33.21875 C 35.867188 32.089844 34.828125 30.804688 33.597656 30.949219 C 31.359375 31.207031 29.742188 32.667969 29.742188 35.015625 L 29.742188 115.503906 C 29.742188 117.234375 30.589844 118.835938 32.296875 119.449219 C 33.867188 120.007812 35.953125 119.691406 37.582031 119.691406 C 40.886719 119.691406 47.78125 120.878906 47.78125 115.761719 L 47.78125 35.132812 C 47.78125 34.253906 47.601562 33.421875 47.121094 32.667969 C 46.0625 30.996094 44.265625 30.949219 42.527344 30.949219 L 33.597656 30.949219 C 30.667969 30.949219 30.667969 35.488281 33.597656 35.488281 " fill-opacity="1" fill-rule="nonzero"/></svg>